<svg id="Слой_1" data-name="Слой 1" xmlns="http://www.w3.org/2000/svg" viewBox="0 0 24 22.02"><defs><style>.cls-1{fill:#656d72;}</style></defs><path class="cls-1" d="M-674.46,230.43a2.83,2.83,0,0,0-.9.21l-2.7,1.16-5.63,2.41-11.47,4.94a2.74,2.74,0,0,0-.75.41,1.92,1.92,0,0,0-.71,1.43,1.86,1.86,0,0,0,.54,1.28,2.54,2.54,0,0,0,.88.55l4.58,1.87c.2.62,1.3,4,1.55,4.8a3.53,3.53,0,0,0,.54,1.15,1.38,1.38,0,0,0,.37.35l.18.09h0l0,0,.09,0a1.41,1.41,0,0,0,.44.08,1.51,1.51,0,0,0,.94-.32l0,0,3-2.6,3.65,3.45a1.93,1.93,0,0,0,1.59.73,2,2,0,0,0,1.45-.65,2.12,2.12,0,0,0,.6-1.13h0L-672.7,233v0a2.64,2.64,0,0,0,0-1.28,1.69,1.69,0,0,0-.75-1A1.75,1.75,0,0,0-674.46,230.43Zm-.19,2.09s0,0,0,0h0s-3.32,17-3.44,17.7c0,0,0,.05-.08.11l-.18-.1,0,0-5-4.72-3.52,3.05,1-4.2s6.55-6.78,7-7.18.38-.43.38-.53-.07-.26-.24-.26a1.13,1.13,0,0,0-.47.22c-1.43.92-7.73,4.58-10.55,6.22l-4.61-1.89h0l11.47-4.94,5.62-2.41C-675.8,233-674.77,232.56-674.65,232.52Z" transform="translate(696.62 -230.43)"/></svg>