<svg id="Слой_1" data-name="Слой 1" xmlns="http://www.w3.org/2000/svg" viewBox="0 0 20 22"><defs><style>.cls-1{fill:#656d72;}</style></defs><path class="cls-1" d="M-648.49,230.46a7.88,7.88,0,0,0-8,7.54v3.5c0,3.39,1,5.59,3.12,6.72v2.3a1.93,1.93,0,0,0,1.18,1.78,2,2,0,0,0,.76.16,1.94,1.94,0,0,0,1.35-.55l3-2.86H-644a7.56,7.56,0,0,0,7.56-7.55V238a7.56,7.56,0,0,0-7.56-7.54Zm0,2H-644a5.55,5.55,0,0,1,5.56,5.54v3.5a5.56,5.56,0,0,1-5.56,5.55h-3.47a1,1,0,0,0-.7.28l-3.15,3v-2.79a1,1,0,0,0-.63-.93c-1.7-.68-2.49-2.31-2.49-5.15V238C-654.49,235.05-651.69,232.46-648.49,232.46Zm3,1a.5.5,0,0,0-.5.5.5.5,0,0,0,.5.5,5.13,5.13,0,0,1,5,5,.5.5,0,0,0,.5.5.5.5,0,0,0,.5-.5A6.16,6.16,0,0,0-645.49,233.46Zm-5,1a.9.9,0,0,0-.7.18l-.58.45a1.8,1.8,0,0,0-.53,2.25,19.71,19.71,0,0,0,3,4.69,18.6,18.6,0,0,0,5,3.28,1.86,1.86,0,0,0,2.11-.52c.18-.21.36-.43.51-.63a.92.92,0,0,0-.2-1.29l-1.87-1.34a.93.93,0,0,0-1.27.18l-.31.35a.9.9,0,0,1-.83.29,4.13,4.13,0,0,1-2.1-1.34,5.34,5.34,0,0,1-1.27-2.16.91.91,0,0,1,.31-.92l.31-.26a.91.91,0,0,0,.17-1.22l-1.15-1.62A.88.88,0,0,0-650.49,234.47Zm5,1a.5.5,0,0,0-.5.5.5.5,0,0,0,.5.5,3.2,3.2,0,0,1,3,3,.5.5,0,0,0,.5.5.5.5,0,0,0,.5-.5A4.21,4.21,0,0,0-645.49,235.46Zm0,2a.5.5,0,0,0-.5.5.5.5,0,0,0,.5.5.9.9,0,0,1,1,1,.5.5,0,0,0,.5.5.5.5,0,0,0,.5-.5A1.89,1.89,0,0,0-645.49,237.46Z" transform="translate(656.49 -230.46)"/></svg>